<svg width="39" height="39" viewBox="0 0 39 39" fill="none" xmlns="http://www.w3.org/2000/svg">
<path d="M32.5482 10.9916L24.3521 2.79551C24.1236 2.56699 23.8151 2.4375 23.4914 2.4375H7.3125C6.63838 2.4375 6.09375 2.98213 6.09375 3.65625V35.3438C6.09375 36.0179 6.63838 36.5625 7.3125 36.5625H31.6875C32.3616 36.5625 32.9062 36.0179 32.9062 35.3438V11.8562C32.9062 11.5324 32.7768 11.2201 32.5482 10.9916ZM30.0955 12.416H22.9277V5.24824L30.0955 12.416ZM30.1641 33.8203H8.83594V5.17969H20.3379V13.4062C20.3379 13.8305 20.5064 14.2374 20.8064 14.5373C21.1064 14.8373 21.5133 15.0059 21.9375 15.0059H30.1641V33.8203Z" fill="inherit"/>
</svg>
