<svg width="28" height="14" viewBox="0 0 28 14" fill="none" xmlns="http://www.w3.org/2000/svg">
<path d="M4.68 11.096C4.136 11.096 3.66 10.976 3.252 10.736C2.844 10.496 2.524 10.132 2.292 9.644C2.068 9.148 1.956 8.524 1.956 7.772C1.956 7.012 2.064 6.388 2.28 5.9C2.496 5.412 2.808 5.048 3.216 4.808C3.624 4.568 4.112 4.448 4.68 4.448C5.288 4.448 5.832 4.588 6.312 4.868C6.8 5.14 7.184 5.524 7.464 6.02C7.752 6.516 7.896 7.1 7.896 7.772C7.896 8.452 7.752 9.04 7.464 9.536C7.184 10.032 6.8 10.416 6.312 10.688C5.832 10.96 5.288 11.096 4.68 11.096ZM0.864 13.328V4.544H2.652V5.864L2.616 7.784L2.736 9.692V13.328H0.864ZM4.356 9.56C4.668 9.56 4.944 9.488 5.184 9.344C5.432 9.2 5.628 8.996 5.772 8.732C5.924 8.46 6 8.14 6 7.772C6 7.396 5.924 7.076 5.772 6.812C5.628 6.548 5.432 6.344 5.184 6.2C4.944 6.056 4.668 5.984 4.356 5.984C4.044 5.984 3.764 6.056 3.516 6.2C3.268 6.344 3.072 6.548 2.928 6.812C2.784 7.076 2.712 7.396 2.712 7.772C2.712 8.14 2.784 8.46 2.928 8.732C3.072 8.996 3.268 9.2 3.516 9.344C3.764 9.488 4.044 9.56 4.356 9.56ZM11.2876 12.2L15.2476 0.895999H16.9156L12.9556 12.2H11.2876ZM23.3933 11.096C22.7853 11.096 22.2373 10.96 21.7493 10.688C21.2613 10.416 20.8733 10.032 20.5853 9.536C20.3053 9.04 20.1653 8.452 20.1653 7.772C20.1653 7.1 20.3053 6.516 20.5853 6.02C20.8733 5.524 21.2613 5.14 21.7493 4.868C22.2373 4.588 22.7853 4.448 23.3933 4.448C23.9613 4.448 24.4453 4.568 24.8453 4.808C25.2533 5.048 25.5653 5.412 25.7812 5.9C25.9973 6.388 26.1053 7.012 26.1053 7.772C26.1053 8.524 25.9933 9.148 25.7693 9.644C25.5453 10.132 25.2293 10.496 24.8213 10.736C24.4133 10.976 23.9373 11.096 23.3933 11.096ZM23.7173 9.56C24.0213 9.56 24.2973 9.488 24.5453 9.344C24.7933 9.2 24.9893 8.996 25.1333 8.732C25.2853 8.46 25.3613 8.14 25.3613 7.772C25.3613 7.396 25.2853 7.076 25.1333 6.812C24.9893 6.548 24.7933 6.344 24.5453 6.2C24.2973 6.056 24.0213 5.984 23.7173 5.984C23.4053 5.984 23.1253 6.056 22.8773 6.2C22.6293 6.344 22.4293 6.548 22.2773 6.812C22.1333 7.076 22.0613 7.396 22.0613 7.772C22.0613 8.14 22.1333 8.46 22.2773 8.732C22.4293 8.996 22.6293 9.2 22.8773 9.344C23.1253 9.488 23.4053 9.56 23.7173 9.56ZM25.3253 13.328V9.692L25.4453 7.784L25.4093 5.864V4.544H27.1973V13.328H25.3253Z" fill="inherit"/>
</svg>
