<svg width="27" height="10" viewBox="0 0 27 10" fill="none" xmlns="http://www.w3.org/2000/svg">
<path d="M0.996 9V0.599999H4.632C5.384 0.599999 6.032 0.724 6.576 0.972C7.12 1.212 7.54 1.56 7.836 2.016C8.132 2.472 8.28 3.016 8.28 3.648C8.28 4.272 8.132 4.812 7.836 5.268C7.54 5.724 7.12 6.076 6.576 6.324C6.032 6.564 5.384 6.684 4.632 6.684H2.076L2.94 5.808V9H0.996ZM2.94 6.024L2.076 5.1H4.524C5.124 5.1 5.572 4.972 5.868 4.716C6.164 4.46 6.312 4.104 6.312 3.648C6.312 3.184 6.164 2.824 5.868 2.568C5.572 2.312 5.124 2.184 4.524 2.184H2.076L2.94 1.26V6.024ZM13.8051 9.144C13.1571 9.144 12.5531 9.04 11.9931 8.832C11.4411 8.616 10.9611 8.312 10.5531 7.92C10.1451 7.528 9.82506 7.068 9.59306 6.54C9.36906 6.012 9.25706 5.432 9.25706 4.8C9.25706 4.168 9.36906 3.588 9.59306 3.06C9.82506 2.532 10.1451 2.072 10.5531 1.68C10.9691 1.288 11.4531 0.987999 12.0051 0.779999C12.5571 0.564 13.1611 0.456 13.8171 0.456C14.5451 0.456 15.2011 0.584 15.7851 0.84C16.3771 1.088 16.8731 1.456 17.2731 1.944L16.0251 3.096C15.7371 2.768 15.4171 2.524 15.0651 2.364C14.7131 2.196 14.3291 2.112 13.9131 2.112C13.5211 2.112 13.1611 2.176 12.8331 2.304C12.5051 2.432 12.2211 2.616 11.9811 2.856C11.7411 3.096 11.5531 3.38 11.4171 3.708C11.2891 4.036 11.2251 4.4 11.2251 4.8C11.2251 5.2 11.2891 5.564 11.4171 5.892C11.5531 6.22 11.7411 6.504 11.9811 6.744C12.2211 6.984 12.5051 7.168 12.8331 7.296C13.1611 7.424 13.5211 7.488 13.9131 7.488C14.3291 7.488 14.7131 7.408 15.0651 7.248C15.4171 7.08 15.7371 6.828 16.0251 6.492L17.2731 7.644C16.8731 8.132 16.3771 8.504 15.7851 8.76C15.2011 9.016 14.5411 9.144 13.8051 9.144ZM17.3295 9L21.0735 0.599999H22.9935L26.7495 9H24.7095L21.6375 1.584H22.4055L19.3215 9H17.3295ZM19.2015 7.2L19.7175 5.724H24.0375L24.5655 7.2H19.2015Z" fill="inherit"/>
</svg>
