<svg width="37" height="37" viewBox="0 0 37 37" fill="none" xmlns="http://www.w3.org/2000/svg">
<path d="M6.16667 32.375H32.375V29.2917H7.70833V4.625H4.625V30.8333C4.625 31.2422 4.78743 31.6343 5.07654 31.9235C5.36566 32.2126 5.75779 32.375 6.16667 32.375Z" fill="inherit"/>
<path d="M15.4167 15.4167C17.1196 15.4167 18.5 14.0362 18.5 12.3333C18.5 10.6305 17.1196 9.25 15.4167 9.25C13.7138 9.25 12.3333 10.6305 12.3333 12.3333C12.3333 14.0362 13.7138 15.4167 15.4167 15.4167Z" fill="inherit"/>
<path d="M27.75 21.5833C29.4529 21.5833 30.8333 20.2029 30.8333 18.5C30.8333 16.7971 29.4529 15.4167 27.75 15.4167C26.0471 15.4167 24.6667 16.7971 24.6667 18.5C24.6667 20.2029 26.0471 21.5833 27.75 21.5833Z" fill="inherit"/>
<path d="M17.7292 23.125C19.0063 23.125 20.0417 22.0897 20.0417 20.8125C20.0417 19.5353 19.0063 18.5 17.7292 18.5C16.452 18.5 15.4167 19.5353 15.4167 20.8125C15.4167 22.0897 16.452 23.125 17.7292 23.125Z" fill="inherit"/>
<path d="M25.4375 12.3333C26.7147 12.3333 27.75 11.298 27.75 10.0208C27.75 8.74367 26.7147 7.70833 25.4375 7.70833C24.1603 7.70833 23.125 8.74367 23.125 10.0208C23.125 11.298 24.1603 12.3333 25.4375 12.3333Z" fill="inherit"/>
</svg>
