<svg width="24" height="24" viewBox="0 0 24 24" fill="none" xmlns="http://www.w3.org/2000/svg">
<path d="M12 1.99999C13.153 1.99999 14.24 2.28999 15.189 2.79999C15.113 3.24499 14.965 3.55999 14.763 3.76299C14.6372 3.88412 14.4887 3.97926 14.326 4.04299C13.702 3.74988 13.0263 3.58255 12.3376 3.55057C11.6489 3.51858 10.9607 3.62255 10.3121 3.85656C9.6636 4.09056 9.06752 4.45001 8.55791 4.91438C8.0483 5.37875 7.63515 5.93895 7.34204 6.56299C7.04893 7.18703 6.8816 7.8627 6.84961 8.5514C6.81762 9.24011 6.9216 9.92838 7.1556 10.5769C7.38961 11.2254 7.74906 11.8215 8.21343 12.3311C8.6778 12.8407 9.238 13.2539 9.86204 13.547C10.55 13.815 11.186 13.963 11.768 13.994L12 14C12.645 14 13.357 13.85 14.137 13.548C15.0492 13.1397 15.8267 12.4808 16.379 11.648C17.019 11.868 17.788 11.734 18.273 11.247C17.8602 12.2814 17.1983 13.1979 16.346 13.915L17.967 18.78C18.0961 19.1672 18.0858 19.5873 17.9379 19.9676C17.79 20.348 17.5138 20.6647 17.157 20.863C15.786 21.626 14.064 22 12 22C9.93604 22 8.21404 21.626 6.84304 20.863C6.48632 20.6647 6.21012 20.348 6.06221 19.9676C5.9143 19.5873 5.90398 19.1672 6.03304 18.78L7.65404 13.915C6.59465 13.0236 5.83497 11.8281 5.47799 10.4904C5.12101 9.15274 5.184 7.73765 5.65842 6.43699C6.13284 5.13632 6.99574 4.013 8.13014 3.2193C9.26453 2.42561 10.6156 1.99993 12 1.99999V1.99999ZM15.057 14.791L14.697 14.94L14.679 14.948C13.9343 15.2699 13.1375 15.4542 12.327 15.492H12.31C12.2858 15.4941 12.2614 15.4955 12.237 15.496L12 15.5L11.804 15.496L11.674 15.491C10.8632 15.4544 10.0659 15.2704 9.32104 14.948L9.30304 14.94C9.18216 14.8925 9.06214 14.8428 8.94304 14.791L7.45604 19.254C7.43743 19.3093 7.43874 19.3693 7.45974 19.4238C7.48074 19.4782 7.52011 19.5235 7.57104 19.552C8.70104 20.179 10.174 20.5 12 20.5C13.826 20.5 15.3 20.18 16.429 19.552C16.4797 19.5236 16.519 19.4784 16.54 19.4242C16.5609 19.37 16.5624 19.3101 16.544 19.255L15.057 14.791V14.791ZM11.69 15.493L11.804 15.496L11.837 15.498L12 15.5C11.896 15.5 11.793 15.498 11.69 15.493V15.493ZM17.992 1.87999L18 1.99999C18 3.14999 18.27 3.95999 18.78 4.46999C19.251 4.93999 19.978 5.20699 20.99 5.24499L21.25 5.24999C22.208 5.24999 22.248 6.62799 21.37 6.74199L21.25 6.74999C20.1 6.74999 19.29 7.01999 18.78 7.52999C18.31 8.00199 18.043 8.72799 18.005 9.73999L18 9.99999C18 11 16.5 11 16.5 9.99999C16.5 8.84999 16.23 8.03999 15.72 7.52999C15.248 7.05999 14.522 6.79299 13.51 6.75499L13.25 6.74999C12.292 6.74999 12.252 5.37199 13.13 5.25799L13.25 5.24999C14.4 5.24999 15.21 4.97999 15.72 4.46999C16.23 3.95999 16.5 3.14999 16.5 1.99999C16.5 1.04199 17.878 1.00199 17.992 1.87999V1.87999ZM17.25 4.95299L17.106 5.15599C16.8555 5.48726 16.5497 5.77278 16.202 5.99999C16.6195 6.2734 16.9762 6.62979 17.25 7.04699C17.5235 6.62987 17.8799 6.27348 18.297 5.99999C17.9501 5.77224 17.6447 5.48678 17.394 5.15599L17.25 4.95299V4.95299Z" fill="inherit"/>
</svg>
