<svg width="32" height="32" viewBox="0 0 32 32" fill="none" xmlns="http://www.w3.org/2000/svg">
<path fill-rule="evenodd" clip-rule="evenodd" d="M28.8 3.2V7.46666H24.5334V5.86666H22.4V13.3333H24.5334V11.7333H28.8V16H24.5334V14.4H22.4C22.1172 14.3997 21.8461 14.2872 21.6461 14.0873C21.4461 13.8873 21.3336 13.6161 21.3334 13.3333V10.1333H18.1334V11.7333H13.8667L13.8666 10.1333H11.7333V22.4H13.8666V20.8H18.1333L18.1334 22.4H21.3334V19.2C21.3336 18.9172 21.4461 18.646 21.6461 18.4461C21.8461 18.2461 22.1172 18.1336 22.4 18.1333H24.5334V16.5333H28.8V20.8H24.5334V19.2H22.4V26.6667H24.5334V25.0667H28.8V29.3333H24.5334V27.7333H22.4C22.1172 27.733 21.8461 27.6206 21.6461 27.4206C21.4461 27.2206 21.3336 26.9495 21.3334 26.6667V23.4667H18.1334V25.0667H13.8667L13.8666 23.4667H11.7333C11.4505 23.4664 11.1793 23.3539 10.9793 23.1539C10.7794 22.954 10.6669 22.6828 10.6666 22.4V16.8H7.46662V18.4H3.19995V14.1333H7.46662V15.7333H10.6666V10.1333C10.6669 9.85052 10.7794 9.57937 10.9793 9.37939C11.1793 9.17941 11.4505 9.06694 11.7333 9.06666H13.8666V7.46666H18.1333L18.1334 9.06666H21.3334V5.86666C21.3336 5.58385 21.4461 5.31271 21.6461 5.11273C21.8461 4.91275 22.1172 4.80028 22.4 4.8H24.5334V3.2H28.8ZM14.9334 8.53333V10.6667L17.0666 10.6667V8.53333L14.9334 8.53333ZM27.7334 12.8H25.6V14.9333H27.7334V12.8ZM27.7334 4.26666H25.6V6.4H27.7334V4.26666ZM6.39995 17.3333H4.26662V15.2H6.39995V17.3333ZM17.0666 21.8667V24L14.9334 24V21.8667L17.0666 21.8667ZM25.6 26.1333H27.7334V28.2667H25.6V26.1333ZM25.6 17.6H27.7334V19.7333H25.6V17.6Z" fill="inherit"/>
</svg>
