<svg width="32" height="32" viewBox="0 0 32 32" fill="none" xmlns="http://www.w3.org/2000/svg">
<path d="M17 7V2H12.1429V3.875H9.71429C9.39234 3.87533 9.08366 4.00713 8.85601 4.24148C8.62836 4.47583 8.50032 4.79358 8.5 5.125V8.875H4.85714V7H0V12H4.85714V10.125H8.5V13.875C8.50032 14.2064 8.62836 14.5242 8.85601 14.7585C9.08366 14.9929 9.39234 15.1247 9.71429 15.125H12.1429V17H17V12H12.1429V13.875H9.71429V5.125H12.1429V7H17ZM3.64286 10.75H1.21429V8.25H3.64286V10.75ZM13.3571 13.25H15.7857V15.75H13.3571V13.25ZM13.3571 3.25H15.7857V5.75H13.3571V3.25Z" fill="inherit"/>
<path d="M32 20V15H27.1429V16.875H24.7143C24.3923 16.8753 24.0837 17.0071 23.856 17.2415C23.6284 17.4758 23.5003 17.7936 23.5 18.125V21.875H19.8571V20H15V25H19.8571V23.125H23.5V26.875C23.5003 27.2064 23.6284 27.5242 23.856 27.7585C24.0837 27.9929 24.3923 28.1247 24.7143 28.125H27.1429V30H32V25H27.1429V26.875H24.7143V18.125H27.1429V20H32ZM18.6429 23.75H16.2143V21.25H18.6429V23.75ZM28.3571 26.25H30.7857V28.75H28.3571V26.25ZM28.3571 16.25H30.7857V18.75H28.3571V16.25Z" fill="inherit"/>
</svg>
