<svg width="40" height="40" viewBox="0 0 40 40" fill="none" xmlns="http://www.w3.org/2000/svg">
<path d="M7.62 7.412C7.73528 7.14144 7.92756 6.91074 8.17292 6.74859C8.41828 6.58644 8.7059 6.49999 9 6.5H31C31.3978 6.5 31.7794 6.65804 32.0607 6.93934C32.342 7.22064 32.5 7.60218 32.5 8C32.5 8.39782 32.342 8.77936 32.0607 9.06066C31.7794 9.34196 31.3978 9.5 31 9.5H12.524L20.816 18.116C21.0723 18.3824 21.2213 18.7341 21.2342 19.1036C21.2471 19.4731 21.1231 19.8343 20.886 20.118L12.208 30.5H31C31.3978 30.5 31.7794 30.658 32.0607 30.9393C32.342 31.2206 32.5 31.6022 32.5 32C32.5 32.3978 32.342 32.7794 32.0607 33.0607C31.7794 33.342 31.3978 33.5 31 33.5H9C8.71478 33.4998 8.43553 33.4183 8.19498 33.2651C7.95442 33.1119 7.76255 32.8932 7.64184 32.6348C7.52114 32.3764 7.47661 32.0889 7.51348 31.8061C7.55034 31.5233 7.66708 31.2568 7.85 31.038L17.72 19.226L7.92 9.04C7.71577 8.82801 7.57843 8.56062 7.52508 8.27113C7.47174 7.98164 7.50475 7.68286 7.62 7.412Z" fill="inherit"/>
</svg>
