<svg width="41" height="41" viewBox="0 0 41 41" fill="none" xmlns="http://www.w3.org/2000/svg">
<path d="M32.5938 8.77351C29.3609 5.69521 25.0174 4 20.3633 4C16.0257 4 11.7019 5.45059 8.5005 7.97974C4.95348 10.7821 3 14.7069 3 19.0312C3 23.3744 4.12236 26.1762 6.53205 27.849C8.55549 29.2537 11.4759 29.853 16.2969 29.853H18.4468C18.9497 29.8536 19.4319 30.0536 19.7875 30.4093C20.1431 30.7649 20.3432 31.2471 20.3438 31.75V35.2176C20.3437 35.8309 20.5874 36.4191 21.0211 36.8528C21.4547 37.2865 22.0429 37.5301 22.6562 37.5301H22.6586L29.217 37.5237C29.7327 37.5226 30.2333 37.3497 30.6396 37.0323C31.3424 36.4815 33.1492 34.9077 34.7443 32.1978C36.6975 28.8783 37.6875 25.032 37.6875 20.7656C37.6875 16.16 35.8785 11.9011 32.5938 8.77351ZM32.7508 31.0252C31.3561 33.3949 29.8123 34.743 29.2147 35.2112L22.6562 35.2176V31.75C22.655 30.634 22.2111 29.564 21.4219 28.7748C20.6328 27.9857 19.5628 27.5418 18.4468 27.5405H16.2969C11.9833 27.5405 9.45737 27.0647 7.85076 25.9493C6.09535 24.7308 5.3125 22.5971 5.3125 19.0312C5.3125 11.07 12.9654 6.3125 20.3633 6.3125C28.7811 6.3125 35.375 12.6611 35.375 20.7656C35.375 24.614 34.4921 28.0658 32.7508 31.0252Z" fill="black"/>
<path d="M11.0938 13.25C10.2934 13.25 9.51093 13.4873 8.84543 13.932C8.17992 14.3767 7.66123 15.0087 7.35493 15.7482C7.04863 16.4877 6.96849 17.3014 7.12464 18.0864C7.28079 18.8714 7.66621 19.5925 8.23218 20.1584C8.79815 20.7244 9.51923 21.1098 10.3042 21.266C11.0893 21.4221 11.903 21.342 12.6424 21.0357C13.3819 20.7294 14.0139 20.2107 14.4586 19.5452C14.9033 18.8797 15.1406 18.0973 15.1406 17.2969C15.1394 16.224 14.7126 15.1953 13.954 14.4367C13.1953 13.678 12.1667 13.2512 11.0938 13.25V13.25ZM11.0938 19.0312C10.7507 19.0312 10.4154 18.9295 10.1302 18.739C9.84497 18.5484 9.62267 18.2775 9.4914 17.9606C9.36013 17.6437 9.32578 17.295 9.3927 16.9585C9.45962 16.6221 9.62481 16.313 9.86736 16.0705C10.1099 15.8279 10.419 15.6627 10.7554 15.5958C11.0918 15.5289 11.4406 15.5633 11.7575 15.6945C12.0744 15.8258 12.3453 16.0481 12.5358 16.3333C12.7264 16.6185 12.8281 16.9538 12.8281 17.2969C12.8276 17.7567 12.6447 18.1975 12.3196 18.5227C11.9944 18.8478 11.5536 19.0307 11.0938 19.0312ZM19.1875 8.04688C18.3871 8.04688 17.6047 8.28422 16.9392 8.7289C16.2737 9.17357 15.755 9.80561 15.4487 10.5451C15.1424 11.2845 15.0622 12.0982 15.2184 12.8833C15.3745 13.6683 15.76 14.3894 16.3259 14.9553C16.8919 15.5213 17.613 15.9067 18.398 16.0629C19.183 16.219 19.9967 16.1389 20.7362 15.8326C21.4756 15.5263 22.1077 15.0076 22.5524 14.3421C22.997 13.6766 23.2344 12.8941 23.2344 12.0938C23.2332 11.0208 22.8064 9.9922 22.0477 9.23353C21.2891 8.47486 20.2604 8.0481 19.1875 8.04688V8.04688ZM19.1875 13.8281C18.8445 13.8281 18.5092 13.7264 18.2239 13.5358C17.9387 13.3453 17.7164 13.0744 17.5852 12.7575C17.4539 12.4406 17.4195 12.0918 17.4865 11.7554C17.5534 11.419 17.7186 11.1099 17.9611 10.8674C18.2037 10.6248 18.5127 10.4596 18.8491 10.3927C19.1856 10.3258 19.5343 10.3601 19.8512 10.4914C20.1681 10.6227 20.439 10.845 20.6296 11.1302C20.8202 11.4154 20.9219 11.7507 20.9219 12.0938C20.9214 12.5536 20.7385 12.9944 20.4133 13.3196C20.0882 13.6447 19.6473 13.8276 19.1875 13.8281ZM27.8594 12.0938C27.059 12.0938 26.2766 12.3311 25.6111 12.7758C24.9456 13.2204 24.4269 13.8525 24.1206 14.592C23.8143 15.3314 23.7341 16.1451 23.8903 16.9301C24.0464 17.7151 24.4318 18.4362 24.9978 19.0022C25.5638 19.5682 26.2849 19.9536 27.0699 20.1097C27.8549 20.2659 28.6686 20.1857 29.4081 19.8795C30.1475 19.5732 30.7796 19.0545 31.2242 18.3889C31.6689 17.7234 31.9063 16.941 31.9063 16.1406C31.905 15.0677 31.4783 14.0391 30.7196 13.2804C29.9609 12.5217 28.9323 12.095 27.8594 12.0938V12.0938ZM27.8594 17.875C27.5164 17.875 27.181 17.7733 26.8958 17.5827C26.6106 17.3921 26.3883 17.1213 26.257 16.8043C26.1258 16.4874 26.0914 16.1387 26.1583 15.8023C26.2253 15.4658 26.3904 15.1568 26.633 14.9142C26.8756 14.6717 27.1846 14.5065 27.521 14.4396C27.8575 14.3727 28.2062 14.407 28.5231 14.5383C28.84 14.6695 29.1109 14.8918 29.3015 15.1771C29.492 15.4623 29.5938 15.7976 29.5938 16.1406C29.5932 16.6005 29.4103 17.0413 29.0852 17.3664C28.7601 17.6916 28.3192 17.8745 27.8594 17.875V17.875ZM29.0156 21.9219C28.2152 21.9219 27.4328 22.1592 26.7673 22.6039C26.1018 23.0486 25.5831 23.6806 25.2768 24.4201C24.9705 25.1595 24.8904 25.9732 25.0465 26.7583C25.2027 27.5433 25.5881 28.2644 26.1541 28.8303C26.72 29.3963 27.4411 29.7817 28.2261 29.9379C29.0111 30.094 29.8248 30.0139 30.5643 29.7076C31.3038 29.4013 31.9358 28.8826 32.3805 28.2171C32.8252 27.5516 33.0625 26.7691 33.0625 25.9688C33.0613 24.8958 32.6345 23.8672 31.8759 23.1085C31.1172 22.3499 30.0886 21.9231 29.0156 21.9219V21.9219ZM29.0156 27.7031C28.6726 27.7031 28.3373 27.6014 28.0521 27.4108C27.7669 27.2203 27.5446 26.9494 27.4133 26.6325C27.282 26.3155 27.2477 25.9668 27.3146 25.6304C27.3815 25.294 27.5467 24.9849 27.7892 24.7424C28.0318 24.4998 28.3408 24.3346 28.6773 24.2677C29.0137 24.2008 29.3624 24.2351 29.6793 24.3664C29.9963 24.4977 30.2671 24.72 30.4577 25.0052C30.6483 25.2904 30.75 25.6257 30.75 25.9688C30.7495 26.4286 30.5666 26.8694 30.2415 27.1946C29.9163 27.5197 29.4755 27.7026 29.0156 27.7031Z" fill="black"/>
</svg>
