<svg width="28" height="28" viewBox="0 0 28 28" fill="none" xmlns="http://www.w3.org/2000/svg">
<path d="M18.293 4.293C18.4805 4.10553 18.7348 4.00021 19 4.00021C19.2652 4.00021 19.5195 4.10553 19.707 4.293L23.707 8.293C23.8945 8.48053 23.9998 8.73484 23.9998 9C23.9998 9.26516 23.8945 9.51947 23.707 9.707L10.707 22.707C10.5195 22.8946 10.2652 22.9999 10 23H6C5.73478 23 5.48043 22.8946 5.29289 22.7071C5.10536 22.5196 5 22.2652 5 22V18C5.00006 17.7348 5.10545 17.4805 5.293 17.293L15.293 7.293L18.293 4.293V4.293ZM16 9.414L7 18.414V21H9.586L18.586 12L16 9.414ZM20 10.586L21.586 9L19 6.414L17.414 8L20 10.586Z" fill="black"/>
</svg>
