<svg width="24" height="21" viewBox="0 0 24 21" fill="none" xmlns="http://www.w3.org/2000/svg">
<g clip-path="url(#clip0_182_10)">
<path d="M6.66667 10.5C6.66667 7.6002 9.05417 5.25 12 5.25C14.9458 5.25 17.3333 7.6002 17.3333 10.5C17.3333 13.3998 14.9458 15.75 12 15.75C9.05417 15.75 6.66667 13.3998 6.66667 10.5ZM12 13.7812C13.8417 13.7812 15.3333 12.3129 15.3333 10.5C15.3333 8.68711 13.8417 7.21875 12 7.21875H11.8792C11.9708 7.42793 12 7.64941 12 7.875C12 9.32285 10.8042 10.5 9.33334 10.5C9.10417 10.5 8.87917 10.4713 8.66667 10.3811V10.4631C8.66667 12.3129 10.1583 13.7812 12 13.7812ZM3.97584 4.61836C5.9375 2.82352 8.63334 1.3125 12 1.3125C15.3667 1.3125 18.0625 2.82352 20.025 4.61836C21.975 6.39844 23.2792 8.49434 23.8958 9.99551C24.0333 10.3195 24.0333 10.6805 23.8958 11.0045C23.2792 12.4687 21.975 14.5646 20.025 16.3816C18.0625 18.1781 15.3667 19.6875 12 19.6875C8.63334 19.6875 5.9375 18.1781 3.97584 16.3816C2.02584 14.5646 0.722504 12.4687 0.102545 11.0045C0.0348526 10.8446 0 10.6732 0 10.5C0 10.3268 0.0348526 10.1554 0.102545 9.99551C0.722504 8.49434 2.02584 6.39844 3.97584 4.61836ZM12 3.28125C9.28334 3.28125 7.05 4.49531 5.3375 6.05801C3.73334 7.52637 2.62584 9.23262 2.06 10.5C2.62584 11.7305 3.73334 13.4736 5.3375 14.942C7.05 16.5047 9.28334 17.7188 12 17.7188C14.7167 17.7188 16.95 16.5047 18.6625 14.942C20.2667 13.4736 21.3375 11.7305 21.9417 10.5C21.3375 9.23262 20.2667 7.52637 18.6625 6.05801C16.95 4.49531 14.7167 3.28125 12 3.28125Z" fill="black"/>
</g>
<defs>
<clipPath id="clip0_182_10">
<rect width="24" height="21" fill="white"/>
</clipPath>
</defs>
</svg>
